<svg xmlns="http://www.w3.org/2000/svg" xmlns:xlink="http://www.w3.org/1999/xlink" width="100" height="100" viewBox="0 0 100 100">
  <defs>
    <clipPath id="clip-Login-password">
      <rect width="100" height="100"/>
    </clipPath>
  </defs>
  <g id="Login-password" clip-path="url(#clip-Login-password)">
    <path id="noun-visible-3391426" d="M161.012,163.3l-17.541-14.034a41.612,41.612,0,0,0-9.2-5.751,44.224,44.224,0,0,0-27.491-2.933,43.042,43.042,0,0,0-8.857,2.876,41.588,41.588,0,0,0-9.2,5.751L71.177,163.3a2.876,2.876,0,0,0,0,4.485l17.541,14.033h0a43.825,43.825,0,0,0,54.752,0l17.541-14.033h0a2.876,2.876,0,0,0,0-4.485Zm-59.928-14.781,1.84-.69h0a10.572,10.572,0,0,1,1.668-.517l2.588-.69,1.208-.345,3.221-.517h.46a37.615,37.615,0,0,1,8.052,0h.575a33.434,33.434,0,0,1,3.336.517h1.15l2.646.748,1.438.517,1.84.69a17.254,17.254,0,1,1-30.022,0ZM139.9,177.275a39.165,39.165,0,0,1-47.62,0L77.561,165.543l14.724-11.5,1.208-.863h0a23.354,23.354,0,0,0-.4,3.738,23.005,23.005,0,0,0,46.01,0,23.35,23.35,0,0,0-.4-4.026c.4.345.8.575,1.208.863l14.723,11.79Z" transform="translate(-66.094 -115.509)" fill="#707070"/>
  </g>
</svg>
