<svg id="Group_4498" data-name="Group 4498" xmlns="http://www.w3.org/2000/svg" xmlns:xlink="http://www.w3.org/1999/xlink" width="161.522" height="136.259" viewBox="0 0 161.522 136.259">
  <defs>
    <clipPath id="clip-path">
      <rect id="Rectangle_5580" data-name="Rectangle 5580" width="161.522" height="136.259" fill="none"/>
    </clipPath>
  </defs>
  <g id="Group_3979" data-name="Group 3979" clip-path="url(#clip-path)">
    <path id="Path_6682" data-name="Path 6682" d="M91.522,55.064,63.779,71.341c-7.034-2.158-16-1.491-21.909,1.978-7.195,4.221-7.148,10.984.106,15.1a22.112,22.112,0,0,0,5.458,2.14,29.044,29.044,0,0,0,4.337.749c5.77.562,11.928-.467,16.367-3.072,5.377-3.155,6.707-7.728,4.01-11.558l3.828-2.246-.108-2.43,4.029-.028-.1-2.276,4.029-.028-.1-2.276,4.029-.028-.1-2.276,4.029-.028-.1-2.276,4.3-.03,1.312-.77,1.448-5.976ZM52.482,86.208a7.529,7.529,0,0,1-6.811.048c-1.888-1.073-1.9-2.833-.028-3.932a7.527,7.527,0,0,1,6.811-.048c1.888,1.072,1.9,2.833.028,3.932" transform="translate(-16.409 -24.752)" fill="#c4d9e8"/>
    <path id="Path_6683" data-name="Path 6683" d="M132.074,201.648,94.659,180.136c-2.519-1.454-2.2-3.995.706-5.674L131.678,153.5c2.909-1.679,7.309-1.862,9.828-.407L178.921,174.6c2.519,1.454,2.2,3.994-.706,5.674L141.9,201.241c-2.909,1.68-7.309,1.862-9.828.407" transform="translate(-41.786 -68.373)" fill="#c4d9e8"/>
    <path id="Path_6684" data-name="Path 6684" d="M209.9,121.087l-6.468-3.735,23.849-13.77a1.246,1.246,0,0,0,0-2.359L202.917,87.157a4.522,4.522,0,0,0-4.085,0l-23.85,13.77-6.469-3.735,23.85-13.769c4.693-2.71,12.329-2.71,17.023,0l24.364,14.067c4.694,2.71,4.694,7.118,0,9.828Z" transform="translate(-75.748 -36.586)" fill="#5793ce"/>
    <path id="Path_6685" data-name="Path 6685" d="M178.923,128.332c0-3.458-2.1-7.475-4.7-8.973l-43.21-24.948a3.015,3.015,0,0,0-3.043-.26l0,0-51.593,29.98,49.892,37.6,50.829-29.5a2.358,2.358,0,0,0,.449-.261h0a4.414,4.414,0,0,0,1.374-3.632" transform="translate(-34.332 -42.187)" fill="#d4ecff"/>
    <path id="Path_6686" data-name="Path 6686" d="M161.658,185.8l50.829-29.5a2.366,2.366,0,0,0,.449-.26h0a4.415,4.415,0,0,0,1.374-3.632,11.52,11.52,0,0,0-1.266-5L155.1,180.863Z" transform="translate(-69.72 -66.262)" fill="#173d7a"/>
    <path id="Path_6687" data-name="Path 6687" d="M121.99,185.851,78.779,160.9c-2.593-1.5-4.7-5.515-4.7-8.973s2.1-5.047,4.7-3.55l43.211,24.948c2.593,1.5,4.7,5.514,4.7,8.972s-2.1,5.047-4.7,3.55" transform="translate(-33.301 -66.445)" fill="#5793ce"/>
    <path id="Path_6688" data-name="Path 6688" d="M144.344,197.048l-5.2-3a2.241,2.241,0,0,1-.936-1.789c0-.689.419-1.006.936-.707l5.2,3a2.242,2.242,0,0,1,.936,1.789c0,.689-.419,1.006-.936.707" transform="translate(-62.128 -86.055)" fill="#fff"/>
    <path id="Path_6689" data-name="Path 6689" d="M78.489,24.885l8.878,5.043,9.059-5.315L96.4,22.3l-.077.045-.007-.163,4.029-.028-.024-2.277,3.951-.028-.024-2.276,3.95-.028-.024-2.277,3.951-.028-.024-2.276,4.223-.03,1.312-.77,1.448-5.976-.024-2.312-.7,2.216-6.393-.854Z" transform="translate(-35.281 -1.744)" fill="#396caa"/>
    <path id="Path_6690" data-name="Path 6690" d="M87.323,26.84l9.059-5.315-.108-2.43,4.029-.028-.1-2.276,4.029-.028-.1-2.276,4.029-.028-.1-2.276,4.029-.029-.1-2.276,4.3-.03,1.312-.77L119.044,3.1l-7.116-.951L78.445,21.8Z" transform="translate(-35.262 -0.968)" fill="#d4ecff"/>
    <path id="Path_6691" data-name="Path 6691" d="M93.355,36.207a12.476,12.476,0,0,0-4.115-3.547,21.238,21.238,0,0,0-4.253-1.8L78.445,34.7l8.878,5.043Z" transform="translate(-35.262 -13.874)" fill="#396caa"/>
    <path id="Path_6692" data-name="Path 6692" d="M127.876,4.752l.243-1-1.194-.16-28.289,16.6,1.49.846Z" transform="translate(-44.337 -1.613)" fill="#5793ce"/>
    <path id="Path_6693" data-name="Path 6693" d="M39.429,52.6l-.1-3.286,1.053,2.22Z" transform="translate(-17.68 -22.168)" fill="#d3d0cf"/>
    <path id="Path_6694" data-name="Path 6694" d="M44.977,53.756c7.253,4.12,18.966,4.038,26.161-.183,3.607-2.117,5.393-4.872,5.364-7.612v0l-.1-3.482-.591.659a11.326,11.326,0,0,0-4.779-4.67c-7.253-4.12-18.966-4.038-26.161.183s-7.148,10.983.106,15.1m10.478-6.147c1.888,1.073,1.9,2.833.028,3.932a7.527,7.527,0,0,1-6.811.047c-1.888-1.072-1.9-2.833-.028-3.932a7.525,7.525,0,0,1,6.811-.048" transform="translate(-17.758 -15.927)" fill="#396caa"/>
    <path id="Path_6695" data-name="Path 6695" d="M44.8,47.788c7.253,4.12,18.966,4.038,26.161-.183s7.147-10.984-.106-15.1-18.966-4.039-26.161.183-7.148,10.983.106,15.1m10.478-6.147c1.888,1.073,1.9,2.833.028,3.932a7.527,7.527,0,0,1-6.811.047c-1.888-1.072-1.9-2.833-.028-3.932a7.525,7.525,0,0,1,6.811-.048" transform="translate(-17.678 -13.244)" fill="#f2f2f2"/>
    <path id="Path_6696" data-name="Path 6696" d="M53.29,57.84a7.428,7.428,0,0,1-4.618-.682c-1.354-.77-1.738-1.891-1.159-2.871l-3.286-2.6s-1.718-1.938-3.418-3.86c-2.646,3.868-1.253,8.423,4.168,11.5A22.852,22.852,0,0,0,53.09,61.9Z" transform="translate(-17.76 -21.497)" fill="#5793ce"/>
    <path id="Path_6697" data-name="Path 6697" d="M44.8,47.788a22.061,22.061,0,0,0,5.458,2.14,29.035,29.035,0,0,0,4.337.749c5.77.562,11.928-.467,16.367-3.072,7.195-4.222,7.147-10.984-.106-15.1s-18.966-4.039-26.161.183-7.148,10.983.106,15.1m10.478-6.147c1.888,1.073,1.9,2.833.028,3.932a7.527,7.527,0,0,1-6.811.047c-1.888-1.072-1.9-2.833-.028-3.932a7.525,7.525,0,0,1,6.811-.048" transform="translate(-17.678 -13.244)" fill="#d4ecff"/>
    <path id="Path_6698" data-name="Path 6698" d="M43.04,41.267c.353-2.105,1.914-4.162,4.692-5.792,6.4-3.756,16.823-3.829,23.276-.163,3.207,1.822,4.827,4.224,4.864,6.641.46-2.744-1.135-5.572-4.787-7.646-6.454-3.666-16.875-3.593-23.276.162-3.22,1.889-4.806,4.351-4.769,6.8" transform="translate(-19.347 -14.206)" fill="#396caa"/>
    <path id="Path_6699" data-name="Path 6699" d="M28.825,78.587a7.257,7.257,0,0,1-3.629-.936c-2.6-1.475-4.046-4.44-4.072-8.347-.051-7.128,4.91-15.861,11.058-19.469,3.368-1.977,6.655-2.253,9.254-.777a7.27,7.27,0,0,1,2.691,2.691,11.2,11.2,0,0,1,1.381,5.657c.051,7.127-4.911,15.861-11.059,19.469a11.241,11.241,0,0,1-5.624,1.712M37.8,50.742a8.665,8.665,0,0,0-4.3,1.349c-5.43,3.186-9.812,10.9-9.767,17.2.02,2.934,1,5.1,2.748,6.091s4.109.726,6.639-.757c5.431-3.186,9.812-10.9,9.768-17.2a8.777,8.777,0,0,0-1.022-4.351A4.542,4.542,0,0,0,37.8,50.742" transform="translate(-9.495 -21.631)" fill="#396caa"/>
    <path id="Path_6700" data-name="Path 6700" d="M56.883,61.294l5.164,1.266.742-3.832a7.529,7.529,0,0,1-6.811.047Z" transform="translate(-25.162 -26.399)" fill="#d4ecff"/>
    <path id="Path_6701" data-name="Path 6701" d="M49.266,62.217a22.091,22.091,0,0,0,5.458,2.14,29.19,29.19,0,0,0,4.337.749c5.77.561,11.928-.467,16.367-3.072L54.4,61.562Z" transform="translate(-22.145 -27.673)" fill="#d4ecff"/>
    <path id="Path_6702" data-name="Path 6702" d="M59.652,66.614a30.5,30.5,0,0,1-4.567-1.178v3.227A25.023,25.023,0,0,0,59.6,69.82c4.815.636.056-3.206.056-3.206" transform="translate(-24.761 -29.414)" fill="#396caa"/>
    <path id="Path_6703" data-name="Path 6703" d="M53.977,65.063A21.419,21.419,0,0,1,51,63.965c-2.813-1.317.745,3.562.745,3.562s.958.382,2.229.772Z" transform="translate(-22.439 -28.651)" fill="#5793ce"/>
    <path id="Path_6704" data-name="Path 6704" d="M141.959,169.057l-9.2,5.934-4.479-.727,10.941-5.289Z" transform="translate(-57.662 -75.955)" fill="#5793ce"/>
    <path id="Path_6705" data-name="Path 6705" d="M126.139,223.192s-2.651-1.337-4.278.653-3.954,6.689-4.026,9.864,2.512,2.96,4.049,2.209,6.024-7.261,6.3-8.537a4.427,4.427,0,0,0-.752-3.338c-.432-.337-1.288-.851-1.288-.851" transform="translate(-52.966 -100.129)" fill="#173d7a"/>
    <path id="Path_6706" data-name="Path 6706" d="M129.875,221.873l.123,2.746a1.558,1.558,0,0,1-.776,1.429,3.056,3.056,0,0,1-2.045.318c-2-.32-2.174-.891-2.317-3.637s5.015-.855,5.015-.855" transform="translate(-56.124 -99.448)" fill="#5793ce"/>
    <path id="Path_6707" data-name="Path 6707" d="M108.515,213.6s-2.651-1.337-4.278.653-3.955,6.689-4.027,9.864,2.512,2.96,4.048,2.209,6.025-7.262,6.3-8.537a4.427,4.427,0,0,0-.752-3.338c-.432-.337-1.288-.851-1.288-.851" transform="translate(-45.044 -95.818)" fill="#173d7a"/>
    <path id="Path_6708" data-name="Path 6708" d="M112.251,212.282l.123,2.746a1.557,1.557,0,0,1-.776,1.429,3.057,3.057,0,0,1-2.045.318c-2-.321-2.174-.892-2.317-3.637s5.015-.855,5.015-.855" transform="translate(-48.202 -95.137)" fill="#5793ce"/>
    <path id="Path_6709" data-name="Path 6709" d="M132.489,116.956c-.784-12.764-13.823,1.878-13.823,1.878l-8.924,8.747-8.036,8.828a7.921,7.921,0,0,0-2,6.363l3.251,24.752a2.433,2.433,0,0,0,2.439,2.114,8.3,8.3,0,0,0,1.2-.106,3.024,3.024,0,0,0,2.686-3.209l-.595-23.151L125.572,133s7.7-3.28,6.917-16.044" transform="translate(-44.79 -50.224)" fill="#d4ecff"/>
    <path id="Path_6710" data-name="Path 6710" d="M122.536,160.177l-2.4-.882c-.056,0-4.082,3.894-4.047,5.257l1.807.58,4.536-4.4Z" transform="translate(-52.182 -71.604)" fill="#5793ce"/>
    <path id="Path_6711" data-name="Path 6711" d="M149.969,159.758S160,154.031,161.2,151.631c.47-.94,1.2-1.923-1.725-3.344L146.1,157.821l.58,3.283Z" transform="translate(-65.672 -66.656)" fill="#5793ce"/>
    <path id="Path_6712" data-name="Path 6712" d="M150.113,125.9c-.836-12.76-13.823,1.878-13.823,1.878l-8.924,8.747-8.036,8.828a7.921,7.921,0,0,0-2,6.363l3.251,24.752a2.433,2.433,0,0,0,2.439,2.114,8.3,8.3,0,0,0,1.2-.106,3.024,3.024,0,0,0,2.686-3.209l-.595-23.151L143.2,141.949s7.682-4.378,6.917-16.044" transform="translate(-52.712 -54.248)" fill="#d4ecff"/>
    <path id="Path_6713" data-name="Path 6713" d="M147.349,54.467c9.885,4.1,9.687,9.941,9.687,9.941s-1.937,21.422-1.275,35.729c.276,5.981-31.776,6.437-27-9.519,5.636-18.814,3.523-34.044,6.162-36.341s9.865-.871,12.422.189" transform="translate(-57.662 -23.845)" fill="#5793ce"/>
    <path id="Path_6714" data-name="Path 6714" d="M160.563,60.856c-.517,2.007-3.147,3.065-5.873,2.362s-4.518-2.9-4-4.905,3.146-3.065,5.873-2.363,4.518,2.9,4,4.906" transform="translate(-67.695 -25.052)" fill="#ffc2b0"/>
    <path id="Path_6715" data-name="Path 6715" d="M155.971,63.521a7.177,7.177,0,0,1-1.786-.23,6.577,6.577,0,0,1-3.466-2.122,3.778,3.778,0,0,1-.875-3.359c.581-2.256,3.475-3.47,6.448-2.7a6.574,6.574,0,0,1,3.465,2.123,3.777,3.777,0,0,1,.876,3.359c-.463,1.8-2.393,2.932-4.662,2.932m-1.488-7.7c-1.836,0-3.371.854-3.725,2.226a2.862,2.862,0,0,0,.693,2.526,5.631,5.631,0,0,0,2.969,1.8c2.47.634,4.846-.271,5.3-2.023a2.864,2.864,0,0,0-.693-2.526,5.628,5.628,0,0,0-2.969-1.805,6.331,6.331,0,0,0-1.573-.2" transform="translate(-67.308 -24.668)" fill="#fff"/>
    <path id="Path_6716" data-name="Path 6716" d="M155.65,53.208a24.367,24.367,0,0,1-.086,3.529c-.053.985,3.394,1.9,4.286,1.013s.535-1.818.749-5.17-4.948.628-4.948.628" transform="translate(-69.927 -23.032)" fill="#ffc2b0"/>
    <path id="Path_6717" data-name="Path 6717" d="M160.6,53.678s-.849,3.108-5.035,4.3l.063-2.825Z" transform="translate(-69.927 -24.129)" fill="#ea9c92"/>
    <path id="Path_6718" data-name="Path 6718" d="M157.3,34.677a7.609,7.609,0,1,1-9.271-5.462,7.609,7.609,0,0,1,9.271,5.462" transform="translate(-63.974 -13.022)" fill="#ffc2b0"/>
    <path id="Path_6719" data-name="Path 6719" d="M151.635,41.8s-4.189,1.795-7.09,1.815-2.261-2.408-2.261-2.408l8.611-1.245Z" transform="translate(-63.93 -17.964)" fill="#ea9c92"/>
    <path id="Path_6720" data-name="Path 6720" d="M140.98,34.755a13.594,13.594,0,0,1,6.851-.9A3.354,3.354,0,0,1,149.765,35a1.142,1.142,0,0,0,.586.423c.568.129,1.5-2.227,2.6-2.28s1.84.727.935,2.176-.6,3.07-.182,3.3,4.832-3.149.937-10.865-13.789-3.56-15.328-2c0,0-1.621,1.412-2.939.155,0,0-1.478,11.069,4.606,8.838" transform="translate(-61.23 -10.445)" fill="#ff2c9c"/>
    <path id="Path_6721" data-name="Path 6721" d="M160.106,99.426v5.788a2.356,2.356,0,0,1-.77,1.743L147.445,117.8l1.351,2.066,15.7-11.389a3.192,3.192,0,0,0,1.3-2.25l1.061-10.095Z" transform="translate(-66.277 -43.211)" fill="#ffc2b0"/>
    <path id="Path_6722" data-name="Path 6722" d="M174.444,68.428s3.607,5.425,4.951,19.706c0,0-6.162,1.993-9.66.862s4.708-20.568,4.708-20.568" transform="translate(-75.907 -30.759)" fill="#5793ce"/>
    <path id="Path_6723" data-name="Path 6723" d="M168.029,80.889A100.518,100.518,0,0,0,166.537,92a2.267,2.267,0,0,0,1.492,2.189Z" transform="translate(-74.859 -36.36)" fill="#396caa"/>
    <path id="Path_6724" data-name="Path 6724" d="M134.8,140.709l-2.628-.347L115.2,130.568a2.359,2.359,0,0,0-2.122.088l-12.021,6.938-1.589-.21v1.582h0a.618.618,0,0,0,.364.557l19.227,11.1a2.359,2.359,0,0,0,2.122-.088l13.092-7.556a.857.857,0,0,0,.519-.714Z" transform="translate(-44.713 -58.596)" fill="#173d7a"/>
    <path id="Path_6725" data-name="Path 6725" d="M122.051,137.353l-1.206-.7H107.594l-6.533,3.769-1.589-.21V141.8h0a.618.618,0,0,0,.364.557l19.227,11.1a1.991,1.991,0,0,0,1.095.2Z" transform="translate(-44.713 -61.428)" fill="#396caa"/>
    <path id="Path_6726" data-name="Path 6726" d="M100.177,143.215l-.705-.093V144.7h0a.618.618,0,0,0,.364.557l.339.2Z" transform="translate(-44.713 -64.334)" fill="#5793ce"/>
    <path id="Path_6727" data-name="Path 6727" d="M135.415,165.048a2.463,2.463,0,0,0,1.8-.112v-2.692h-1.8Z" transform="translate(-60.87 -72.93)" fill="#274f89"/>
    <path id="Path_6728" data-name="Path 6728" d="M119.065,147.821l-19.227-11.1c-.544-.314-.476-.863.152-1.225l13.092-7.556a2.356,2.356,0,0,1,2.122-.088l19.227,11.1c.544.314.476.862-.152,1.225l-13.092,7.556a2.359,2.359,0,0,1-2.122.088" transform="translate(-44.713 -57.375)" fill="#fff"/>
    <path id="Path_6729" data-name="Path 6729" d="M121.169,149.451l-15.987-9.23c-.453-.261-.4-.717.127-1.018l7.015-3.945a1.961,1.961,0,0,1,1.764-.073l15.987,9.23c.452.261.4.717-.127,1.019l-7.015,3.945a1.961,1.961,0,0,1-1.764.073" transform="translate(-47.143 -60.687)" fill="#d4ecff"/>
    <path id="Path_6730" data-name="Path 6730" d="M125.3,126.978l-.2,1.327a9.808,9.808,0,0,0,.086,3.4l.237,1.169a1.644,1.644,0,0,0,1.317,1.291.907.907,0,0,0,1.064-.792l.317-2.836s.726.951,1.076.951-.392-2.841-1.185-4.448-2.714-.064-2.714-.064" transform="translate(-56.183 -56.778)" fill="#ffc2b0"/>
    <path id="Path_6731" data-name="Path 6731" d="M131.044,85.953l-2.063,4.083a8,8,0,0,0-.844,3.1l-.9,13.967-2.714-.064-1.232-15.685a5.736,5.736,0,0,1,.07-1.449l1.407-7.954Z" transform="translate(-55.414 -36.837)" fill="#ffc2b0"/>
    <path id="Path_6732" data-name="Path 6732" d="M117.134,142.1l-1.612-2.1-16.954-9.816a2.358,2.358,0,0,1-.983-1.883l.015-13.88-.975-1.273.916-.53h0a.618.618,0,0,1,.664.039l19.213,11.124a2.36,2.36,0,0,1,.983,1.883l-.017,15.117a.858.858,0,0,1-.359.806Z" transform="translate(-43.434 -50.584)" fill="#173d7a"/>
    <path id="Path_6733" data-name="Path 6733" d="M105.41,134.138l-1.2-.7-6.612-11.484.007-7.542-.975-1.272.916-.531h0a.618.618,0,0,1,.664.039l19.213,11.124a1.987,1.987,0,0,1,.724.847Z" transform="translate(-43.434 -50.584)" fill="#396caa"/>
    <path id="Path_6734" data-name="Path 6734" d="M97.059,113.706l-.433-.565.916-.53h0a.619.619,0,0,1,.664.038l.339.2Z" transform="translate(-43.434 -50.584)" fill="#5793ce"/>
    <path id="Path_6735" data-name="Path 6735" d="M133.107,133.177a2.462,2.462,0,0,1,.8,1.618l-1.878,1.084-.9-1.562Z" transform="translate(-58.945 -59.864)" fill="#274f89"/>
    <path id="Path_6736" data-name="Path 6736" d="M116.232,124.737,97.019,113.613c-.543-.315-.985.018-.986.743l-.016,15.116A2.358,2.358,0,0,0,97,131.355l19.213,11.124c.543.314.985-.018.985-.743l.017-15.117a2.36,2.36,0,0,0-.983-1.883" transform="translate(-43.16 -51.016)" fill="#5793ce"/>
    <path id="Path_6737" data-name="Path 6737" d="M144.727,137.557l-.308.638a4.273,4.273,0,0,1-1.606,1.78l-1.908,1.176a1.9,1.9,0,0,1-1.948.045l-.065-.039a1.148,1.148,0,0,1-.162-1.764l1.994-2.051s-1.121.859-1.435.513c-.23-.254,1.087-1.49,2.1-1.53a3.993,3.993,0,0,0,1.989-.835Z" transform="translate(-62.208 -60.904)" fill="#ffc2b0"/>
    <path id="Path_6738" data-name="Path 6738" d="M132.336,55.229s-7.311,7.955-10.261,15.253a14.927,14.927,0,0,0,8.62,6.272c6.119,1.768,1.64-21.524,1.64-21.524" transform="translate(-54.873 -24.826)" fill="#5793ce"/>
    <path id="Path_6739" data-name="Path 6739" d="M133.92,84.125l1.185-11.447L132.313,83.4a16.017,16.017,0,0,0,1.607.722" transform="translate(-59.476 -32.669)" fill="#396caa"/>
    <path id="Path_6740" data-name="Path 6740" d="M149.057,51.872l-1.965-.539a4.741,4.741,0,0,0,2.307,1.851c1.37.376,1.583-.783,1.583-.783Z" transform="translate(-66.119 -23.075)" fill="#fff"/>
    <path id="Path_6741" data-name="Path 6741" d="M78.435,11.381a5.5,5.5,0,1,1,5.5-5.5,5.509,5.509,0,0,1-5.5,5.5m0-9.8a4.3,4.3,0,1,0,4.3,4.3,4.306,4.306,0,0,0-4.3-4.3" transform="translate(-32.783 -0.169)" fill="#d4ecff"/>
    <path id="Path_6742" data-name="Path 6742" d="M50.436,213.9l-2.649-5.387,5.387-2.649,2.649,5.387Zm-1.042-4.839,1.589,3.232,3.232-1.589-1.589-3.232Z" transform="translate(-21.481 -92.537)" fill="#5793ce"/>
    <path id="Path_6743" data-name="Path 6743" d="M192.462,62.224l-2.649-5.387,5.387-2.649,2.649,5.387Zm-1.042-4.84,1.589,3.232,3.232-1.589L194.652,55.8Z" transform="translate(-85.322 -24.358)" fill="#5793ce"/>
    <rect id="Rectangle_5579" data-name="Rectangle 5579" width="2.76" height="2.76" transform="translate(19.245 89.729) rotate(-26.182)" fill="#5793ce"/>
    <path id="Path_6744" data-name="Path 6744" d="M201.967,8.636l-14.72-8.5a.753.753,0,0,0-.761-.061V.068L185.06.893l1,.367V11.979a2.836,2.836,0,0,0,1.184,2.263l14.069,8.123v1.257l1.443-.83-.008,0a1.051,1.051,0,0,0,.4-.944V10.9a2.836,2.836,0,0,0-1.184-2.263" transform="translate(-83.186 0)" fill="#d3008d"/>
    <path id="Path_6745" data-name="Path 6745" d="M200.145,24.258l-14.72-8.5a2.836,2.836,0,0,1-1.184-2.263V2.552c0-.872.53-1.273,1.184-.9l14.72,8.5a2.837,2.837,0,0,1,1.184,2.263V23.363c0,.872-.53,1.273-1.184.9" transform="translate(-82.818 -0.681)" fill="#ff2c9c"/>
    <path id="Path_6746" data-name="Path 6746" d="M193.762,19.025c0,.633-.445.89-.993.574a2.2,2.2,0,0,1-.993-1.72c0-.634.445-.89.993-.574a2.2,2.2,0,0,1,.993,1.72" transform="translate(-86.205 -7.717)" fill="#fff"/>
    <path id="Path_6747" data-name="Path 6747" d="M199.228,22.181c0,.633-.445.89-.993.574a2.2,2.2,0,0,1-.993-1.72c0-.634.445-.89.993-.574a2.2,2.2,0,0,1,.993,1.72" transform="translate(-88.662 -9.136)" fill="#fff"/>
    <path id="Path_6748" data-name="Path 6748" d="M204.693,25.336c0,.633-.445.89-.993.574a2.2,2.2,0,0,1-.993-1.72c0-.634.444-.89.993-.574a2.2,2.2,0,0,1,.993,1.72" transform="translate(-91.118 -10.554)" fill="#fff"/>
    <path id="Path_6749" data-name="Path 6749" d="M17.389,177.924,2.949,169.587a.738.738,0,0,0-.746-.059v-.009l-1.4.809.984.359V181.2a2.783,2.783,0,0,0,1.162,2.22l13.8,7.969v1.234l1.415-.815-.008,0a1.028,1.028,0,0,0,.393-.926V180.144a2.781,2.781,0,0,0-1.162-2.22" transform="translate(-0.361 -76.17)" fill="#5793ce"/>
    <path id="Path_6750" data-name="Path 6750" d="M15.6,193.249l-14.44-8.337A2.782,2.782,0,0,1,0,182.692V171.955c0-.855.52-1.249,1.162-.879l14.44,8.337a2.783,2.783,0,0,1,1.162,2.22v10.737c0,.855-.52,1.249-1.162.878" transform="translate(0 -76.837)" fill="#d4ecff"/>
    <path id="Path_6751" data-name="Path 6751" d="M9.341,188.115c0,.622-.436.873-.974.563a2.155,2.155,0,0,1-.974-1.688c0-.621.437-.873.974-.562a2.152,2.152,0,0,1,.974,1.687" transform="translate(-3.323 -83.741)" fill="#fff"/>
    <path id="Path_6752" data-name="Path 6752" d="M14.7,191.211c0,.622-.436.873-.974.563a2.154,2.154,0,0,1-.974-1.688c0-.621.437-.873.974-.562a2.152,2.152,0,0,1,.974,1.687" transform="translate(-5.733 -85.132)" fill="#fff"/>
    <path id="Path_6753" data-name="Path 6753" d="M20.064,194.306c0,.621-.436.873-.974.563a2.154,2.154,0,0,1-.974-1.688c0-.621.437-.873.974-.562a2.152,2.152,0,0,1,.974,1.687" transform="translate(-8.143 -86.524)" fill="#fff"/>
  </g>
</svg>
