<svg xmlns="http://www.w3.org/2000/svg" width="36" height="36" viewBox="0 0 36 36">
    <defs>
        <style>
            .cls-1{fill:#fff}.cls-2{fill:#b9bcc1}
        </style>
    </defs>
    <g id="Group_687" data-name="Group 687" transform="translate(-638)">
        <path id="Rectangle_935" d="M0 0h36v36H0z" class="cls-1" data-name="Rectangle 935" transform="translate(638)"/>
        <path id="Path_776" d="M655.5 30c-5.715 0-11.5-1.2-11.5-3.5 0-2.213 5.154-3.244 9.568-3.455l.047 1c-5.621.269-8.615 1.6-8.615 2.456 0 1.02 4.091 2.5 10.5 2.5S666 27.52 666 26.5c0-.845-2.95-2.167-8.49-2.449l.051-1c4.354.222 9.439 1.259 9.439 3.448C667 28.8 661.215 30 655.5 30z" class="cls-2" data-name="Path 776"/>
        <path id="Path_777" d="M655.5 17.958a3.967 3.967 0 1 1 3.967-3.966 3.971 3.971 0 0 1-3.967 3.966zm0-6.933a2.967 2.967 0 1 0 2.967 2.967 2.97 2.97 0 0 0-2.967-2.967z" data-name="Path 777"/>
        <path id="Path_778" d="M655.5 27l-.411-.595c-.252-.364-6.155-8.952-6.155-12.418a6.566 6.566 0 1 1 13.132 0c0 3.466-5.9 12.054-6.155 12.418zm0-18.58a5.573 5.573 0 0 0-5.566 5.567c0 2.425 3.7 8.452 5.566 11.243 1.868-2.791 5.566-8.818 5.566-11.243a5.573 5.573 0 0 0-5.566-5.562z" data-name="Path 778"/>
    </g>
</svg>
